<svg width="322" height="286" viewBox="0 0 322 286" fill="none" xmlns="http://www.w3.org/2000/svg">
<path d="M131.204 23.852L110.128 31.7281C108.451 32.3426 107.333 33.9625 107.333 35.75C107.333 37.5375 108.451 39.1574 110.128 39.7719L131.204 47.648L139.086 68.707C139.701 70.3828 141.322 71.5 143.111 71.5C144.9 71.5 146.521 70.3828 147.136 68.707L155.018 47.648L176.094 39.7719C177.771 39.1574 178.889 37.5375 178.889 35.75C178.889 33.9625 177.771 32.3426 176.094 31.7281L155.018 23.852L147.136 2.79297C146.521 1.11719 144.9 0 143.111 0C141.322 0 139.701 1.11719 139.086 2.79297L131.204 23.852ZM25.7712 220.868C15.3174 231.314 15.3174 248.295 25.7712 258.796L45.1135 278.124C55.5674 288.57 72.5618 288.57 83.0715 278.124L296.229 65.0762C306.683 54.6305 306.683 37.6492 296.229 27.1477L276.886 7.87617C266.433 -2.56953 249.438 -2.56953 238.928 7.87617L25.7712 220.868ZM270.905 46.1398L212.207 104.792L199.182 91.777L257.88 33.1246L270.905 46.1398ZM4.19271 65.4672C1.67708 66.4168 0 68.8187 0 71.5C0 74.1813 1.67708 76.5832 4.19271 77.5328L35.7778 89.375L47.6292 120.936C48.5795 123.449 50.9833 125.125 53.6667 125.125C56.35 125.125 58.7538 123.449 59.7042 120.936L71.5556 89.375L103.141 77.5328C105.656 76.5832 107.333 74.1813 107.333 71.5C107.333 68.8187 105.656 66.4168 103.141 65.4672L71.5556 53.625L59.7042 22.0645C58.7538 19.5508 56.35 17.875 53.6667 17.875C50.9833 17.875 48.5795 19.5508 47.6292 22.0645L35.7778 53.625L4.19271 65.4672ZM200.97 208.467C198.455 209.417 196.778 211.819 196.778 214.5C196.778 217.181 198.455 219.583 200.97 220.533L232.556 232.375L244.407 263.936C245.357 266.449 247.761 268.125 250.444 268.125C253.128 268.125 255.532 266.449 256.482 263.936L268.333 232.375L299.918 220.533C302.434 219.583 304.111 217.181 304.111 214.5C304.111 211.819 302.434 209.417 299.918 208.467L268.333 196.625L256.482 165.064C255.532 162.551 253.128 160.875 250.444 160.875C247.761 160.875 245.357 162.551 244.407 165.064L232.556 196.625L200.97 208.467Z" fill="white"/>
</svg>
